<?xml version="1.0" encoding="UTF-8" standalone="no"?>
<!-- Created with Inkscape (http://www.inkscape.org/) -->

<svg
   width="67.214722mm"
   height="65.258141mm"
   viewBox="0 0 67.214722 65.258141"
   version="1.1"
   id="svg5"
   xml:space="preserve"
   inkscape:version="1.2.2 (732a01da63, 2022-12-09)"
   sodipodi:docname="sd.svg"
   xmlns:inkscape="http://www.inkscape.org/namespaces/inkscape"
   xmlns:sodipodi="http://sodipodi.sourceforge.net/DTD/sodipodi-0.dtd"
   xmlns="http://www.w3.org/2000/svg"
   xmlns:svg="http://www.w3.org/2000/svg"><sodipodi:namedview
     id="namedview7"
     pagecolor="#ffffff"
     bordercolor="#000000"
     borderopacity="0.25"
     inkscape:showpageshadow="2"
     inkscape:pageopacity="0.0"
     inkscape:pagecheckerboard="0"
     inkscape:deskcolor="#d1d1d1"
     inkscape:document-units="mm"
     showgrid="false"
     inkscape:zoom="2.0888418"
     inkscape:cx="45.001014"
     inkscape:cy="138.35418"
     inkscape:window-width="1920"
     inkscape:window-height="1009"
     inkscape:window-x="-8"
     inkscape:window-y="-8"
     inkscape:window-maximized="1"
     inkscape:current-layer="layer1" /><defs
     id="defs2"><clipPath
       clipPathUnits="userSpaceOnUse"
       id="clipPath18"><path
         d="M 0,841.89 H 595.28 V 0 H 0 Z"
         id="path16" /></clipPath><clipPath
       clipPathUnits="userSpaceOnUse"
       id="clipPath42"><path
         d="M 0,841.89 H 595.28 V 0 H 0 Z"
         id="path40" /></clipPath><clipPath
       clipPathUnits="userSpaceOnUse"
       id="clipPath386"><path
         d="M 0,841.89 H 595.28 V 0 H 0 Z"
         id="path384" /></clipPath><clipPath
       clipPathUnits="userSpaceOnUse"
       id="clipPath398"><path
         d="M 0,841.89 H 595.28 V 0 H 0 Z"
         id="path396" /></clipPath><clipPath
       clipPathUnits="userSpaceOnUse"
       id="clipPath594"><path
         d="M 0,841.89 H 595.28 V 0 H 0 Z"
         id="path592" /></clipPath></defs><g
     inkscape:label="Layer 1"
     inkscape:groupmode="layer"
     id="layer1"
     transform="translate(-64.806295,-144.84278)"><g
       id="g38"
       clip-path="url(#clipPath42)"
       transform="matrix(0.35277777,0,0,-0.35277777,-6.587062,265.63216)"><g
         id="g44"
         transform="translate(340.0215,240.8467)"
         style="fill:none;fill-opacity:1"><path
           d="m 0,0 c 0.08,0.215 1.16,2.59 2.455,3.238 1.297,0.648 4.68,3.671 5.689,5.182 1.004,1.512 3.598,6.911 3.813,7.775 0.215,0.864 8.637,9.717 8.637,9.717 l -1.908,-0.134 -5.666,-1.8 c 0,0 4.721,7.085 5.853,7.964 1.135,0.88 2.268,4.3 2.648,5.865 0.377,1.564 0.377,1.345 0.377,5.082 0,3.739 -1.133,7.544 -1.133,7.544 0,0 1.51,3.45 3.022,4.331 1.512,0.879 4.406,3.371 4.659,5.092 0.251,1.724 -2.204,2.64 2.709,3.39 4.911,0.752 4.722,1.713 5.855,2.66 1.133,0.951 1.702,3.795 2.646,4.463 0.944,0.665 2.455,1.545 3.778,2.424 1.322,0.881 3.399,4.174 3.777,4.727 0.38,0.552 2.08,4.07 2.08,7.149 0,3.077 0.754,4.177 -0.756,6.816 -1.514,2.638 -3.4,3.297 -5.289,3.739 -1.891,0.438 -2.457,2.637 -5.103,1.317 -2.645,-1.317 -4.155,0 -5.666,-0.879 -1.512,-0.88 -3.15,-1.099 -4.031,-2.418 -0.882,-1.32 -5.981,-2.639 -7.305,-2.639 -1.323,0 -2.899,0.219 -4.754,0.219 -1.858,0 -9.982,3.727 -9.982,3.727 L 1.463,95.773 C -1.846,96.35 2.6,93.167 -1.153,94.46 c -5.165,1.638 -10.656,2.462 -15.992,3.393 -5.941,0.367 -11.685,0.76 -17.617,0.258 l -2.244,2.971 H -48.06 l -2.244,-2.971 c -5.93,0.502 -11.675,0.109 -17.616,-0.258 -5.336,-0.931 -10.828,-1.755 -15.991,-3.393 -3.756,-1.293 0.786,1.743 -2.694,1.291 l -4.563,-1.2 c 0,0 -8.125,-3.727 -9.981,-3.727 -1.856,0 -3.434,-0.219 -4.756,-0.219 -1.323,0 -6.424,1.319 -7.305,2.639 -0.881,1.319 -2.519,1.538 -4.03,2.418 -1.511,0.879 -3.023,-0.438 -5.667,0.879 -2.646,1.32 -3.213,-0.879 -5.101,-1.317 -1.89,-0.442 -3.779,-1.101 -5.289,-3.739 -1.512,-2.639 -0.756,-3.739 -0.756,-6.816 0,-3.079 1.699,-6.597 2.076,-7.149 0.379,-0.553 2.457,-3.846 3.779,-4.727 1.323,-0.879 2.834,-1.759 3.78,-2.424 0.943,-0.668 1.511,-3.512 2.644,-4.463 1.134,-0.947 0.944,-1.908 5.855,-2.66 4.913,-0.75 2.457,-1.666 2.709,-3.39 0.252,-1.721 3.149,-4.213 4.659,-5.092 1.512,-0.881 3.024,-4.331 3.024,-4.331 0,0 -1.133,-3.805 -1.133,-7.544 0,-3.737 0,-3.518 0.376,-5.082 0.379,-1.565 1.512,-4.985 2.644,-5.865 1.135,-0.879 5.857,-7.964 5.857,-7.964 l -5.485,1.596 -2.394,0.338 c 0,0 8.422,-8.853 8.638,-9.717 0.216,-0.864 2.807,-6.263 3.816,-7.775 1.006,-1.511 4.39,-4.534 5.686,-5.182 1.295,-0.648 2.375,-3.023 2.457,-3.238 l 0.291,-1.305 c 0.711,0.201 1.444,0.213 1.786,0.008 0.542,-0.325 1.944,-0.54 1.944,-0.54 0,0 1.404,1.296 2.16,1.837 0.757,0.539 1.835,0.646 1.851,0.97 0.015,0.326 0.417,0.864 0,1.296 -0.417,0.432 -0.447,1.295 -1.01,1.728 -0.562,0.431 -1.489,1.943 -1.812,2.59 -0.326,0.648 0.971,3.889 0.971,3.889 l 0.841,-0.756 0.598,-2.485 c 0,0 0.613,-1.511 1.404,-2.483 0.792,-0.972 3.635,-2.051 4.29,-2.268 0.655,-0.215 0,-2.049 0,-2.049 l -1.194,-1.08 c 0,0 -1.405,-1.622 -2.268,-2.375 -0.864,-0.758 -2.83,-0.973 -2.83,-0.973 l 1.01,-2.914 0.308,-1.514 3.78,-3.455 -0.88,-4.571 -3.599,-1.655 2.859,-0.899 -2.447,-5.76 -2.292,-2.158 c 0,0 -1.872,-2.092 -2.015,-2.99 -0.144,-0.899 -0.504,-1.545 0,-2.338 0.504,-0.791 2.159,-2.232 2.446,-2.448 0.289,-0.216 1.44,-1.079 1.44,-1.079 l 0.865,-1.584 -0.877,-2.807 0.648,-2.591 0.432,-1.944 0.936,-2.736 1.583,0.865 5.111,0.864 c 0,0 3.455,0.791 4.751,1.079 1.296,0.289 3.168,1.367 4.678,1.801 1.512,0.432 4.536,1.943 5.183,2.374 0.648,0.434 2.808,2.231 2.808,2.231 l 1.369,1.693 c 0,0 -0.937,-4.427 -1.153,-5.003 l 5.183,3.383 -4.248,-5.904 c 0,0 -0.791,-0.502 -1.007,-0.719 -0.217,-0.215 -1.08,-0.432 -1.512,-0.577 -0.432,-0.142 -2.304,-0.79 -2.519,-0.933 -0.216,-0.146 -0.72,-0.434 -1.368,-0.864 -0.647,-0.433 -0.864,-0.433 -1.296,-0.792 -0.432,-0.361 -0.935,-0.431 -1.44,-0.612 -0.504,-0.181 -1.079,-0.468 -1.44,-0.685 -0.359,-0.216 -0.719,-0.071 -1.367,-0.648 -0.648,-0.577 -1.223,-1.008 -1.223,-1.008 h -1.872 c -0.719,0 -0.647,10e-4 -1.728,0.29 -1.079,0.286 -2.231,0.864 -3.167,1.006 -0.935,0.144 -1.511,0.504 -1.943,0.289 -0.432,-0.216 -2.519,-0.793 -2.519,-0.793 l 7.054,-1.869 h 0.287 c 0,0 0.864,-0.433 1.512,-0.65 0.648,-0.215 1.152,-1.223 1.152,-1.223 l 2.808,2.447 2.303,0.649 4.175,-5.616 h 0.72 l 0.503,-0.288 4.535,-3.887 0.288,-0.577 4.574,-0.032 2.121,0.527 v -0.01 0.01 l 2.121,-0.527 4.574,0.032 0.289,0.577 4.533,3.887 0.504,0.288 h 0.721 l 4.174,5.616 2.303,-0.649 2.807,-2.447 c 0,0 0.505,1.008 1.153,1.223 0.647,0.217 1.512,0.65 1.512,0.65 h 0.286 l 7.056,1.869 c 0,0 -2.088,0.577 -2.521,0.793 -0.43,0.215 -1.006,-0.145 -1.942,-0.289 -0.937,-0.142 -2.088,-0.72 -3.17,-1.006 -1.078,-0.289 -1.006,-0.29 -1.725,-0.29 h -1.872 c 0,0 -0.575,0.431 -1.223,1.008 -0.648,0.577 -1.008,0.432 -1.368,0.648 -0.361,0.217 -0.935,0.504 -1.441,0.685 -0.504,0.181 -1.006,0.251 -1.439,0.612 -0.43,0.359 -0.647,0.359 -1.295,0.792 -0.647,0.43 -1.151,0.718 -1.367,0.864 -0.217,0.143 -2.089,0.791 -2.52,0.933 -0.431,0.145 -1.295,0.362 -1.512,0.577 -0.216,0.217 -1.007,0.719 -1.007,0.719 l -4.248,5.904 5.181,-3.383 c -0.214,0.576 -1.148,5.003 -1.148,5.003 l 1.367,-1.693 c 0,0 2.158,-1.797 2.807,-2.231 0.646,-0.431 3.67,-1.942 5.181,-2.374 1.512,-0.434 3.385,-1.512 4.68,-1.801 1.296,-0.288 4.75,-1.079 4.75,-1.079 l 5.111,-0.864 1.584,-0.865 0.938,2.736 0.429,1.944 0.649,2.591 -0.879,2.807 0.865,1.584 c 0,0 1.154,0.863 1.44,1.079 0.291,0.216 1.945,1.657 2.449,2.448 0.504,0.793 0.144,1.439 0,2.338 -0.143,0.898 -2.016,2.99 -2.016,2.99 l -2.291,2.158 -2.447,5.76 2.858,0.899 -3.598,1.655 -0.881,4.571 3.779,3.455 0.309,1.514 1.01,2.914 c 0,0 -1.965,0.215 -2.831,0.973 -0.862,0.753 -2.267,2.375 -2.267,2.375 l -1.195,1.08 c 0,0 -0.652,1.834 0,2.049 0.656,0.217 3.5,1.296 4.291,2.268 0.793,0.972 1.404,2.483 1.404,2.483 l 0.598,2.485 0.842,0.756 c 0,0 1.294,-3.241 0.97,-3.889 -0.322,-0.647 -1.25,-2.159 -1.812,-2.59 -0.563,-0.433 -0.594,-1.296 -1.01,-1.728 -0.415,-0.432 -0.014,-0.97 0,-1.296 0.015,-0.324 1.096,-0.431 1.852,-0.97 0.754,-0.541 2.16,-1.837 2.16,-1.837 0,0 1.404,0.215 1.941,0.54 z"
           style="fill:none;fill-opacity:1;fill-rule:nonzero;stroke:none"
           id="path46" /></g><g
         id="g48"
         transform="translate(222.5542,218.3145)"
         style="fill:#fefae0;fill-opacity:1"><path
           d="m 0,0 c 0,0 1.152,-2.448 3.312,-2.519 2.159,-0.072 5.398,0.575 6.262,1.259 0.864,0.685 3.958,4.066 5.327,8.53 1.368,4.463 3.166,7.775 4.823,8.709 1.655,0.937 1.727,1.153 2.663,0.577 0.936,-0.577 0.719,-1.368 1.08,-2.088 0.359,-0.721 0.72,-2.016 1.223,-2.301 0.504,-0.289 2.016,-1.08 2.016,-1.08 0,0 0.936,-0.577 0.863,-0.865 C 27.498,9.935 26.418,9.573 26.13,9.573 25.841,9.573 24.259,9.43 22.242,8.495 20.227,7.559 15.836,4.823 15.836,4.823 c 0,0 -2.159,-3.527 -2.375,-4.176 C 13.245,0 12.453,-2.376 12.381,-3.022 12.309,-3.671 11.733,-4.823 11.373,-5.183 11.014,-5.542 8.638,-6.91 7.63,-7.271 6.623,-7.631 4.319,-7.054 3.24,-6.263 2.159,-5.47 0,0 0,0"
           style="fill:#fefae0;fill-opacity:1;fill-rule:nonzero;stroke:none"
           id="path50" /></g><g
         id="g52"
         transform="translate(246.813,224.9365)"
         style="fill:#fefae0;fill-opacity:1"><path
           d="m 0,0 c 0,0 -2.017,0.287 -2.736,0 -0.72,-0.287 -3.527,-2.23 -4.103,-2.951 -0.576,-0.721 -2.231,-4.03 -2.376,-4.606 -0.143,-0.576 -0.503,-3.241 -0.503,-3.888 0,-0.647 0.575,-4.247 0.719,-4.752 0.145,-0.502 1.44,-3.239 1.44,-3.239 l 0.72,4.751 c 0,0 0.936,3.746 1.296,4.247 0.361,0.504 3.743,2.736 3.743,2.736 l 0.864,3.528 z"
           style="fill:#fefae0;fill-opacity:1;fill-rule:nonzero;stroke:none"
           id="path54" /></g><g
         id="g56"
         transform="translate(244.5259,213.458)"
         style="fill:#fefae0;fill-opacity:1"><path
           d="m 0,0 -2.82,-3.322 -1.857,-9.199 -3.62,4.43 c 0,0 -0.582,-5.995 -0.712,-6.502 -0.129,-0.509 -0.448,-1.956 -1.667,-2.136 -1.218,-0.179 -3.168,-0.02 -3.916,0.966 -0.748,0.988 -1.173,3.206 -1.173,3.206 l 3.291,3.193 c 0,0 -3.575,-0.898 -4.81,-3.021 -1.234,-2.125 -1.057,-3.201 -1.057,-3.201 0,0 0.728,-2.785 1.252,-3.418 0.522,-0.633 3.911,-3.27 4.205,-3.478 0.295,-0.209 3.542,-0.616 4.155,-0.598 0.614,0.017 2.599,1.153 4.082,2.133 1.483,0.98 2.938,2.967 3.423,3.628 0.485,0.663 1.602,4.296 1.595,4.585 -0.01,0.287 -0.03,1.007 -0.03,1.007 0,0 0.718,2.541 0.701,3.116 -0.016,0.576 0.514,2.175 0.514,2.175 z"
           style="fill:#fefae0;fill-opacity:1;fill-rule:nonzero;stroke:none"
           id="path58" /></g><g
         id="g60"
         transform="translate(248.1284,223.6006)"
         style="fill:#fefae0;fill-opacity:1"><path
           d="m 0,0 -1.152,-8.129 4.248,3.095 c 0,0 1.439,2.591 2.159,2.807 0.72,0.215 4.462,1.368 4.462,1.368 0,0 1.8,0.143 2.16,0.143 0.36,0 2.592,-0.143 2.592,-0.143 l 3.599,1.655 c 0,0 -3.888,2.591 -5.183,2.88 -1.296,0.287 -4.428,0.935 -4.428,0.935 0,0 -1.906,-0.432 -3.202,-1.224 C 3.958,2.597 0,0 0,0"
           style="fill:#fefae0;fill-opacity:1;fill-rule:nonzero;stroke:none"
           id="path62" /></g><g
         id="g64"
         transform="translate(265.4561,221.8428)"
         style="fill:#fefae0;fill-opacity:1"><path
           d="m 0,0 -2.447,-5.76 c 0,0 -4.176,-0.217 -5.112,-0.359 -0.936,-0.146 -3.743,-0.576 -4.462,-1.585 -0.72,-1.007 -1.44,-2.95 -1.44,-4.319 0,-1.367 1.08,-3.598 1.296,-3.958 0.215,-0.361 3.455,-2.376 3.455,-2.376 0,0 -2.448,0.289 -3.455,0.361 -1.008,0.072 -3.456,2.16 -3.887,2.591 -0.432,0.431 -1.584,3.455 -1.656,3.743 -0.072,0.286 0,2.808 0,2.808 0,0 1.583,2.807 3.023,3.67 1.44,0.865 4.463,2.086 5.075,2.231 0.613,0.144 5.003,1.441 5.003,1.441 l 1.728,0.432 z"
           style="fill:#fefae0;fill-opacity:1;fill-rule:nonzero;stroke:none"
           id="path66" /></g><g
         id="g68"
         transform="translate(260.7173,213.9248)"
         style="fill:#fefae0;fill-opacity:1"><path
           d="m 0,0 c 0,0 -1.872,-2.092 -2.015,-2.99 -0.144,-0.899 -0.504,-1.545 0,-2.338 0.504,-0.791 2.159,-2.233 2.446,-2.448 0.289,-0.216 1.44,-1.079 1.44,-1.079 l 0.865,-1.584 c 0,0 -1.441,-0.143 -1.872,0 -0.433,0.146 -3.312,1.441 -3.671,1.656 -0.36,0.217 -2.303,1.44 -2.807,2.015 -0.504,0.577 -0.937,2.808 -0.648,3.24 0.288,0.432 0.575,1.655 1.295,1.872 0.721,0.215 0.471,0.504 1.712,0.647 C -2.015,-0.865 0,0 0,0"
           style="fill:#fefae0;fill-opacity:1;fill-rule:nonzero;stroke:none"
           id="path70" /></g><g
         id="g72"
         transform="translate(256.936,200.4648)"
         style="fill:#fefae0;fill-opacity:1"><path
           d="m 0,0 -3.1,0.503 c 0,0 -2.571,0.721 -2.788,1.009 -0.215,0.287 -1.728,1.296 -1.728,1.296 l -1.582,1.726 -0.574,-3.526 -0.577,-1.799 v -2.378 c 0,0 -0.577,-2.95 -0.793,-3.381 -0.215,-0.432 -2.087,-3.24 -2.447,-4.032 -0.36,-0.792 -0.647,-2.376 -1.044,-2.808 -0.396,-0.43 -0.828,-5.973 -0.755,-6.333 0.071,-0.36 0.216,-0.936 0.755,-1.368 0.542,-0.433 1.907,-1.945 2.195,-1.945 0.29,0 2.089,-0.863 2.089,-0.863 h 3.311 v 0.432 l -1.833,0.792 -2.775,2.878 c 0,0 -0.575,1.009 -0.575,1.225 0,0.217 0.793,1.727 0.793,1.727 l 2.557,1.945 3.704,2.302 2.449,2.087 1.295,0.828 c 0,0 0.432,2.557 0.683,3.133 0.252,0.574 0.795,2.879 0.74,3.095 C -0.056,-3.239 0,0 0,0"
           style="fill:#fefae0;fill-opacity:1;fill-rule:nonzero;stroke:none"
           id="path74" /></g><g
         id="g76"
         transform="translate(258.6172,197.5117)"
         style="fill:#fefae0;fill-opacity:1"><path
           d="m 0,0 0.141,0.29 1.083,2.229 c 0,0 0.36,0.865 0.576,0.865 0.216,0 1.223,0.359 1.44,0.287 C 3.455,3.599 3.959,3.167 3.959,3.167 l 0.648,-2.591 0.432,-1.944 0.936,-2.736 1.584,0.865 5.11,0.864 c 0,0 3.456,0.791 4.751,1.079 1.296,0.289 3.168,1.367 4.679,1.801 1.511,0.432 4.536,1.943 5.182,2.374 0.648,0.434 2.808,2.231 2.808,2.231 l 1.369,1.693 c 0,0 -0.937,-4.427 -1.152,-5.003 l 5.183,3.383 -4.248,-5.904 c 0,0 -0.792,-0.502 -1.008,-0.719 -0.216,-0.215 -1.08,-0.432 -1.512,-0.577 -0.431,-0.142 -2.304,-0.79 -2.519,-0.933 -0.216,-0.146 -0.72,-0.434 -1.368,-0.864 -0.647,-0.433 -0.863,-0.433 -1.296,-0.792 -0.432,-0.361 -0.935,-0.431 -1.439,-0.612 -0.504,-0.181 -1.08,-0.469 -1.44,-0.685 -0.36,-0.216 -0.72,-0.071 -1.367,-0.648 -0.648,-0.577 -1.224,-1.008 -1.224,-1.008 h -1.871 c -0.72,0 -0.648,0.001 -1.728,0.289 -1.079,0.287 -2.232,0.865 -3.168,1.007 -0.935,0.144 -1.51,0.504 -1.943,0.289 -0.432,-0.216 -2.519,-0.793 -2.519,-0.793 0,0 0.287,-1.152 0,-1.439 -0.288,-0.289 -0.72,-1.152 -1.224,-1.871 -0.504,-0.719 -2.663,-2.664 -2.663,-2.664 l -1.871,-1.153 -2.16,-0.647 -4.052,-0.575 c 0,0 -2.346,-0.649 -3.358,-0.791 -1.012,-0.147 -2.411,-0.289 -2.411,-0.289 l 1.543,2.015 c 0,0 1.511,1.226 1.799,1.512 0.288,0.287 3.815,1.801 3.815,1.801 0,0 2.644,1.654 3.157,2.158 0.514,0.504 0.662,1.651 0.662,1.867 0,0.216 0.63,2.03 0.63,2.03 0,0 -0.209,1.316 -0.209,1.748 C 0.497,-2.632 0,0 0,0"
           style="fill:#fefae0;fill-opacity:1;fill-rule:nonzero;stroke:none"
           id="path78" /></g><g
         id="g80"
         transform="translate(272.5103,188.876)"
         style="fill:#fefae0;fill-opacity:1"><path
           d="m 0,0 v -1.657 l -1.6,-2.089 c 0,0 -3.295,-1.08 -3.583,-1.08 -0.288,0 -3.311,-0.574 -4.103,-0.789 -0.792,-0.217 -5.543,-1.946 -5.543,-1.946 l -1.835,-1.152 c 0,0 -3.347,-2.949 -3.347,-3.165 v -1.296 c 0,0 4.175,3.238 4.823,3.309 0.647,0.072 3.455,1.01 4.607,1.657 1.151,0.647 2.23,0.937 4.247,1.079 2.015,0.144 7.413,0.54 7.413,0.54 0,0 0.36,-0.035 1.008,1.189 0.648,1.222 0.864,3.527 0.864,3.527 0,0 -0.504,1.008 -1.152,1.223 C 1.151,-0.434 0.288,0 0.288,0 Z"
           style="fill:#fefae0;fill-opacity:1;fill-rule:nonzero;stroke:none"
           id="path82" /></g><g
         id="g84"
         transform="translate(280.5723,190.0986)"
         style="fill:#fefae0;fill-opacity:1"><path
           d="m 0,0 -2.303,-0.649 c 0,0 -0.504,-4.535 -0.504,-4.967 0,-0.433 -0.791,-1.152 -1.008,-1.583 -0.216,-0.434 -1.728,-2.375 -1.943,-2.664 -0.217,-0.288 -1.728,-1.51 -2.807,-1.655 -1.081,-0.145 -2.448,0 -2.952,0 -0.504,0 -1.944,0.43 -2.736,0.287 -0.791,-0.142 -1.727,0 -2.339,0 -0.612,0 -3.635,-0.272 -3.851,-0.352 -0.216,-0.08 -4.031,-2.022 -4.103,-2.239 -0.072,-0.215 -0.504,-1.801 -0.504,-2.086 0,-0.289 -0.79,-1.442 -0.504,-2.664 0.288,-1.225 0.504,-3.024 0.504,-3.024 l 1.068,-2.375 c 0,0 1.811,4.535 2.171,5.47 0.36,0.937 0.792,1.655 1.512,2.231 0.72,0.577 2.807,0.577 3.707,0.647 0.899,0.072 4.067,0 5.723,0 1.655,0 6.046,1.081 6.407,1.227 0.358,0.143 1.583,1.726 3.023,3.165 1.439,1.44 1.871,2.159 2.087,3.023 0.215,0.864 0.503,2.592 0.288,3.239 -0.215,0.649 -0.721,3.313 -0.721,3.313 z"
           style="fill:#fefae0;fill-opacity:1;fill-rule:nonzero;stroke:none"
           id="path86" /></g><g
         id="g88"
         transform="translate(285.9707,184.1943)"
         style="fill:#fefae0;fill-opacity:1"><path
           d="M 0,0 4.535,-3.887 4.823,-4.464 4.247,-6.766 2.088,-10.004 c 0,0 -1.44,-1.37 -2.088,-1.441 -0.648,-0.071 -4.823,-1.582 -5.255,-1.657 -0.432,-0.071 -2.591,-0.357 -3.311,-0.357 -0.72,0 -4.822,-0.865 -5.111,-0.937 -0.287,-0.073 -2.231,-0.864 -2.231,-0.864 l -4.031,-2.231 -1.223,-0.575 v 2.015 l 0.647,2.735 c 0,0 0.504,1.007 1.224,1.08 0.72,0.072 2.663,0.791 3.239,0.791 0.576,0 6.335,-0.287 6.335,-0.287 0,0 0.215,0.433 1.548,0.792 1.331,0.36 3.644,2.016 3.783,2.448 0.139,0.43 1.435,1.582 1.723,2.376 0.288,0.789 1.151,3.237 1.151,3.237 l 0.288,3.167 h 0.721 z"
           style="fill:#fefae0;fill-opacity:1;fill-rule:nonzero;stroke:none"
           id="path90" /></g><g
         id="g92"
         transform="translate(252.4995,228.9678)"
         style="fill:#fefae0;fill-opacity:1"><path
           d="M 0,0 -1.62,1.728 V 3.672 L 0.987,4.969 10.797,3.455 14.577,0 H 9.609 L 6.478,0.539 4.09,1.835 2.457,2.482 0.987,1.728 Z"
           style="fill:#fefae0;fill-opacity:1;fill-rule:nonzero;stroke:none"
           id="path94" /></g><g
         id="g96"
         transform="translate(256.48,322.252)"
         style="fill:#fefae0;fill-opacity:1"><path
           d="m 0,0 -8.976,-5.386 -5.609,-5.61 -3.815,-10.21 v -7.516 l 1.458,-6.062 2.693,-5.832 -0.336,6.717 1.683,4.837 -0.337,8.754 2.132,8.302 3.029,4.939 6.396,4.15 z"
           style="fill:#fefae0;fill-opacity:1;fill-rule:nonzero;stroke:none"
           id="path98" /></g><g
         id="g100"
         transform="translate(248.8535,335.3975)"><path
           d="m 0,0 c -0.567,0 -13.226,-2.406 -15.492,-1.087 -2.268,1.318 -6.614,3.739 -8.692,4.178 -2.077,0.439 -5.478,1.964 -6.801,1.964 -1.322,0 -5.667,0 -7.367,-1.1 -1.7,-1.101 -7.34,-2.476 -7.718,-5.629 -0.377,-3.152 -0.513,-6.744 -0.324,-9.234 0.189,-2.493 2.753,-8.43 3.698,-10.408 0.944,-1.981 4.155,-4.18 5.099,-4.619 0.945,-0.44 2.457,-1.54 2.457,-1.977 0,-0.44 1.323,-5.323 2.266,-5.191 0.945,0.132 7.368,-3.606 8.502,-4.266 1.133,-0.659 1.071,-3.398 2.33,-4.007 1.259,-0.61 3.392,-1.796 3.082,-2.742 -0.311,-0.946 0,-7.103 0,-7.103 l 1.2,-5.523 c 0,0 6.211,-12.881 5.479,-12.028 2.077,-2.421 3.821,-2.9 3.821,-2.9 l 1.657,-1.758 0.188,2.857 c 0,0 -4.722,7.086 -5.857,7.965 -1.132,0.879 -2.265,4.299 -2.644,5.864 -0.376,1.564 -0.376,1.346 -0.376,5.082 0,3.739 1.133,7.544 1.133,7.544 0,0 -1.512,3.45 -3.024,4.331 -1.51,0.879 -4.407,3.371 -4.659,5.093 -0.252,1.723 2.204,2.639 -2.709,3.389 -4.911,0.752 -4.721,1.713 -5.855,2.66 -1.133,0.952 -1.701,3.795 -2.644,4.463 -0.946,0.665 -2.457,1.545 -3.78,2.424 -1.322,0.881 -3.4,4.174 -3.779,4.727 -0.377,0.552 -2.076,4.07 -2.076,7.149 0,3.077 -0.756,4.177 0.756,6.817 1.51,2.637 3.399,3.296 5.289,3.738 1.888,0.438 2.455,2.638 5.101,1.317 2.644,-1.317 4.156,0 5.667,-0.879 1.511,-0.88 3.149,-1.098 4.03,-2.418 0.881,-1.32 5.982,-2.638 7.305,-2.638 1.321,0 2.9,0.218 4.756,0.218 1.856,0 4.241,0.221 4.241,0.221 z"
           style="fill:#fefae0;fill-opacity:1;fill-rule:nonzero;stroke:none"
           id="path102" /></g><g
         id="g104"
         transform="translate(346.4268,335.3975)"
         style="fill:#fefae0;fill-opacity:1"><path
           d="m 0,0 c 0.563,0 13.226,-2.406 15.493,-1.087 2.266,1.318 6.611,3.739 8.69,4.178 2.077,0.439 5.478,1.964 6.8,1.964 1.324,0 5.667,0 7.368,-1.1 1.701,-1.101 7.341,-2.476 7.719,-5.629 0.376,-3.152 0.512,-6.744 0.324,-9.234 -0.19,-2.493 -2.754,-8.43 -3.699,-10.408 -0.944,-1.981 -4.155,-4.18 -5.098,-4.619 -0.947,-0.44 -2.458,-1.54 -2.458,-1.977 0,-0.44 -1.322,-5.323 -2.267,-5.191 -0.945,0.132 -7.368,-3.606 -8.5,-4.266 -1.134,-0.659 -1.072,-3.398 -2.331,-4.007 -1.259,-0.61 -3.391,-1.796 -3.083,-2.742 0.313,-0.946 0,-7.103 0,-7.103 l -1.199,-5.523 c 0,0 -6.212,-12.881 -5.479,-12.028 -2.078,-2.421 -3.82,-2.9 -3.82,-2.9 l -1.657,-1.758 -0.189,2.857 c 0,0 4.722,7.086 5.854,7.965 1.135,0.879 2.267,4.299 2.647,5.864 0.378,1.564 0.378,1.346 0.378,5.082 0,3.739 -1.134,7.544 -1.134,7.544 0,0 1.511,3.45 3.023,4.331 1.512,0.879 4.406,3.371 4.659,5.093 0.251,1.723 -2.204,2.639 2.709,3.389 4.911,0.752 4.722,1.713 5.854,2.66 1.133,0.952 1.703,3.795 2.647,4.463 0.943,0.665 2.455,1.545 3.777,2.424 1.323,0.881 3.4,4.174 3.778,4.727 0.38,0.552 2.08,4.07 2.08,7.149 0,3.077 0.754,4.177 -0.756,6.817 -1.514,2.637 -3.401,3.296 -5.289,3.738 -1.891,0.438 -2.457,2.638 -5.104,1.317 -2.644,-1.317 -4.154,0 -5.666,-0.879 -1.511,-0.88 -3.149,-1.098 -4.03,-2.418 -0.882,-1.32 -5.981,-2.638 -7.306,-2.638 -1.322,0 -2.898,0.218 -4.754,0.218 -1.857,0 -4.242,0.221 -4.242,0.221 z"
           style="fill:#fefae0;fill-opacity:1;fill-rule:nonzero;stroke:none"
           id="path106" /></g><g
         id="g108"
         transform="translate(234.3594,266.7588)"
         style="fill:#fefae0;fill-opacity:1"><path
           d="m 0,0 c 0,0 6.535,-12.093 6.831,-12.74 0.295,-0.649 0.943,-2.376 2.239,-4.752 1.295,-2.375 2.959,-4.534 4.288,-5.83 1.326,-1.294 4.276,-3.887 4.276,-3.887 0,0 3.043,1.08 2.963,1.297 -0.082,0.215 -1.161,2.59 -2.457,3.238 -1.296,0.648 -4.68,3.671 -5.686,5.182 -1.009,1.512 -3.6,6.911 -3.816,7.775 -0.216,0.863 -1.807,3.671 -1.807,3.671 z"
           style="fill:#fefae0;fill-opacity:1;fill-rule:nonzero;stroke:none"
           id="path110" /></g><g
         id="g112"
         transform="translate(261.9785,250.5635)"
         style="fill:#fefae0;fill-opacity:1"><path
           d="m 0,0 -0.841,0.756 c 0,0 -1.297,-3.24 -0.972,-3.889 0.324,-0.647 1.251,-2.159 1.813,-2.59 0.563,-0.433 0.593,-1.296 1.01,-1.728 0.417,-0.432 0.015,-0.97 0,-1.296 -0.016,-0.323 -1.094,-0.431 -1.851,-0.97 -0.756,-0.541 -2.16,-1.837 -2.16,-1.837 0,0 -1.402,0.215 -1.944,0.54 -0.539,0.324 -2.051,0.108 -2.915,-0.54 -0.863,-0.648 -3.347,-1.08 -3.239,-1.296 0.108,-0.216 -2.029,-3.777 -2.029,-3.777 0,0 3.248,1.617 4.636,1.833 1.388,0.216 2.841,0.108 4.004,0.108 1.163,0 5.498,-1.941 5.498,-1.941 L 0,-13.713 c 0,0 1.966,0.215 2.83,0.973 0.863,0.754 2.268,2.375 2.268,2.375 l 1.194,1.08 c 0,0 0.655,1.834 0,2.05 -0.655,0.216 -3.498,1.296 -4.29,2.267 -0.791,0.972 -1.404,2.484 -1.404,2.484 z"
           style="fill:#fefae0;fill-opacity:1;fill-rule:nonzero;stroke:none"
           id="path114" /></g><g
         id="g116"
         transform="translate(279.4204,287.0576)"
         style="fill:#fefae0;fill-opacity:1"><path
           d="M 0,0 C 0,0 2.231,-5.254 2.376,-5.47 2.52,-5.686 4.175,-7.557 4.175,-7.557 l -0.432,-2.448 c 0,0 -3.888,6.48 -3.743,6.694 C 0.144,-3.096 0,0 0,0"
           style="fill:#fefae0;fill-opacity:1;fill-rule:nonzero;stroke:none"
           id="path118" /></g><g
         id="g120"
         transform="translate(296.8408,240.1982)"
         style="fill:#fefae0;fill-opacity:1"><path
           d="m 0,0 -7.991,-2.375 -8.464,-3.385 6.233,0.749 5.83,-0.749 1.657,2.231 z"
           style="fill:#fefae0;fill-opacity:1;fill-rule:nonzero;stroke:none"
           id="path122" /></g><g
         id="g124"
         transform="translate(291.8735,233.4307)"
         style="fill:#fefae0;fill-opacity:1"><path
           d="m 0,0 -5.111,0.506 -7.63,-0.254 -2.192,-1.331 5.791,0.288 3.887,-0.72 3.527,-1.655 z"
           style="fill:#fefae0;fill-opacity:1;fill-rule:nonzero;stroke:none"
           id="path126" /></g><g
         id="g128"
         transform="translate(292.9341,207.6025)"
         style="fill:#fefae0;fill-opacity:1"><path
           d="M 0,0 -1.786,1.555 -3.027,3.957 -2.406,7.764 1.324,20.176 2.039,20.01 0.094,8.061 -0.686,4.728 -0.351,2.853 0.527,1.361 3.33,0.182 3.126,-0.52 Z"
           style="fill:#fefae0;fill-opacity:1;fill-rule:nonzero;stroke:none"
           id="path130" /></g><g
         id="g132"
         transform="translate(288.1523,214.9316)"
         style="fill:#fefae0;fill-opacity:1"><path
           d="m 0,0 -0.26,-0.228 -3.011,-2.041 -2.402,-2.699 -3.271,-1.668 -2.804,-2.795 -2.002,-2.679 2.87,2.004 2.328,1.683 2.812,1.586 2.737,0.579 0.866,-1.227 1.068,-0.938 1.53,-0.416 2.18,-0.2 1.697,-0.392 h 1.616 l 2.734,-0.477 -3.634,1.485 -2.413,0.518 -2.18,0.867 -1.329,0.982 -1.069,1.221 -0.065,1.736 z"
           style="fill:#fefae0;fill-opacity:1;fill-rule:nonzero;stroke:none"
           id="path134" /></g><g
         id="g136"
         transform="translate(246.9067,331.7031)"
         style="fill:#fefae0;fill-opacity:1"><path
           d="m 0,0 c 2.508,2.029 3.811,3.011 6.509,4.895 8.577,2.604 17.084,4.379 25.985,5.438 2.565,0.209 3.852,0.282 6.439,0.359 2.45,-0.127 3.675,-0.22 6.122,-0.466 C 44.138,9.046 43.688,8.451 42.811,7.255 36.881,7.757 31.135,7.363 25.195,6.996 19.859,6.065 14.367,5.241 9.204,3.604 5.448,2.311 3.604,1.587 0,0"
           style="fill:#fefae0;fill-opacity:1;fill-rule:nonzero;stroke:none"
           id="path138" /></g><g
         id="g140"
         transform="translate(372.4229,218.3145)"
         style="fill:#fefae0;fill-opacity:1"><path
           d="m 0,0 c 0,0 -1.151,-2.448 -3.312,-2.519 -2.158,-0.072 -5.396,0.575 -6.261,1.259 -0.864,0.685 -3.96,4.066 -5.326,8.53 -1.368,4.463 -3.169,7.775 -4.824,8.709 -1.655,0.937 -1.727,1.153 -2.665,0.577 -0.935,-0.577 -0.718,-1.368 -1.079,-2.088 -0.358,-0.721 -0.721,-2.016 -1.223,-2.301 -0.504,-0.289 -2.016,-1.08 -2.016,-1.08 0,0 -0.938,-0.577 -0.865,-0.865 0.074,-0.287 1.153,-0.649 1.441,-0.649 0.287,0 1.871,-0.143 3.887,-1.078 2.014,-0.936 6.407,-3.672 6.407,-3.672 0,0 2.16,-3.527 2.376,-4.176 0.217,-0.647 1.006,-3.023 1.08,-3.669 0.07,-0.649 0.647,-1.801 1.007,-2.161 0.36,-0.359 2.735,-1.727 3.744,-2.088 1.005,-0.36 3.31,0.217 4.39,1.008 C -2.16,-5.47 0,0 0,0"
           style="fill:#fefae0;fill-opacity:1;fill-rule:nonzero;stroke:none"
           id="path142" /></g><g
         id="g144"
         transform="translate(348.165,224.9365)"
         style="fill:#fefae0;fill-opacity:1"><path
           d="m 0,0 c 0,0 2.015,0.287 2.733,0 0.721,-0.287 3.53,-2.23 4.104,-2.951 0.576,-0.721 2.233,-4.03 2.376,-4.606 0.145,-0.576 0.505,-3.241 0.505,-3.888 0,-0.647 -0.577,-4.247 -0.721,-4.752 -0.143,-0.502 -1.438,-3.239 -1.438,-3.239 l -0.722,4.751 c 0,0 -0.934,3.746 -1.297,4.247 -0.357,0.504 -3.742,2.736 -3.742,2.736 l -0.863,3.528 z"
           style="fill:#fefae0;fill-opacity:1;fill-rule:nonzero;stroke:none"
           id="path146" /></g><g
         id="g148"
         transform="translate(350.4521,213.458)"
         style="fill:#fefae0;fill-opacity:1"><path
           d="m 0,0 2.817,-3.322 1.857,-9.199 3.621,4.43 c 0,0 0.585,-5.995 0.716,-6.502 0.127,-0.509 0.444,-1.956 1.664,-2.136 1.219,-0.179 3.168,-0.02 3.916,0.966 0.752,0.988 1.174,3.206 1.174,3.206 l -3.291,3.193 c 0,0 3.573,-0.898 4.808,-3.021 1.235,-2.125 1.057,-3.201 1.057,-3.201 0,0 -0.728,-2.785 -1.25,-3.418 -0.524,-0.633 -3.91,-3.27 -4.206,-3.478 -0.294,-0.209 -3.542,-0.616 -4.154,-0.598 -0.615,0.017 -2.597,1.153 -4.083,2.133 -1.482,0.98 -2.938,2.967 -3.42,3.628 -0.488,0.663 -1.606,4.296 -1.598,4.585 0.01,0.287 0.029,1.007 0.029,1.007 0,0 -0.717,2.541 -0.701,3.116 0.018,0.576 -0.514,2.175 -0.514,2.175 z"
           style="fill:#fefae0;fill-opacity:1;fill-rule:nonzero;stroke:none"
           id="path150" /></g><g
         id="g152"
         transform="translate(346.8496,223.6006)"
         style="fill:#fefae0;fill-opacity:1"><path
           d="m 0,0 1.15,-8.129 -4.247,3.095 c 0,0 -1.438,2.591 -2.159,2.807 -0.721,0.215 -4.463,1.368 -4.463,1.368 0,0 -1.801,0.143 -2.158,0.143 -0.361,0 -2.593,-0.143 -2.593,-0.143 l -3.598,1.655 c 0,0 3.886,2.591 5.182,2.88 1.296,0.287 4.427,0.935 4.427,0.935 0,0 1.908,-0.432 3.203,-1.224 C -3.959,2.597 0,0 0,0"
           style="fill:#fefae0;fill-opacity:1;fill-rule:nonzero;stroke:none"
           id="path154" /></g><g
         id="g156"
         transform="translate(329.5215,221.8428)"
         style="fill:#fefae0;fill-opacity:1"><path
           d="m 0,0 2.447,-5.76 c 0,0 4.173,-0.217 5.11,-0.359 0.937,-0.146 3.742,-0.576 4.463,-1.585 0.719,-1.007 1.44,-2.95 1.44,-4.319 0,-1.367 -1.079,-3.598 -1.294,-3.958 -0.217,-0.361 -3.455,-2.376 -3.455,-2.376 0,0 2.446,0.289 3.455,0.361 1.006,0.072 3.454,2.16 3.887,2.591 0.431,0.431 1.582,3.455 1.654,3.743 0.074,0.286 0,2.808 0,2.808 0,0 -1.584,2.807 -3.023,3.67 -1.438,0.865 -4.461,2.086 -5.076,2.231 -0.612,0.144 -5.001,1.441 -5.001,1.441 L 2.879,-1.08 Z"
           style="fill:#fefae0;fill-opacity:1;fill-rule:nonzero;stroke:none"
           id="path158" /></g><g
         id="g160"
         transform="translate(334.2598,213.9248)"
         style="fill:#fefae0;fill-opacity:1"><path
           d="m 0,0 c 0,0 1.873,-2.092 2.016,-2.99 0.144,-0.899 0.504,-1.545 0,-2.338 -0.504,-0.791 -2.159,-2.233 -2.45,-2.448 -0.286,-0.216 -1.439,-1.079 -1.439,-1.079 l -0.865,-1.584 c 0,0 1.441,-0.143 1.875,0 0.429,0.146 3.312,1.441 3.672,1.656 0.359,0.217 2.302,1.44 2.806,2.015 0.503,0.577 0.936,2.808 0.647,3.24 C 5.977,-3.096 5.688,-1.873 4.967,-1.656 4.248,-1.441 4.496,-1.152 3.255,-1.009 2.016,-0.865 0,0 0,0"
           style="fill:#fefae0;fill-opacity:1;fill-rule:nonzero;stroke:none"
           id="path162" /></g><g
         id="g164"
         transform="translate(338.042,200.4648)"
         style="fill:#fefae0;fill-opacity:1"><path
           d="m 0,0 3.099,0.503 c 0,0 2.572,0.721 2.787,1.009 0.217,0.287 1.726,1.296 1.726,1.296 l 1.584,1.726 0.577,-3.526 0.576,-1.799 v -2.378 c 0,0 0.576,-2.95 0.793,-3.381 0.214,-0.432 2.086,-3.24 2.446,-4.032 0.36,-0.792 0.647,-2.376 1.044,-2.808 0.395,-0.43 0.828,-5.973 0.756,-6.333 -0.073,-0.36 -0.217,-0.936 -0.756,-1.368 -0.539,-0.433 -1.908,-1.945 -2.195,-1.945 -0.291,0 -2.088,-0.863 -2.088,-0.863 H 7.038 v 0.432 l 1.832,0.792 2.774,2.878 c 0,0 0.576,1.009 0.576,1.225 0,0.217 -0.793,1.727 -0.793,1.727 L 8.87,-14.9 5.166,-12.598 2.72,-10.511 1.422,-9.683 c 0,0 -0.431,2.557 -0.684,3.133 C 0.489,-5.976 -0.056,-3.671 0,-3.455 0.054,-3.239 0,0 0,0"
           style="fill:#fefae0;fill-opacity:1;fill-rule:nonzero;stroke:none"
           id="path166" /></g><g
         id="g168"
         transform="translate(336.3594,197.5117)"
         style="fill:#fefae0;fill-opacity:1"><path
           d="m 0,0 -0.141,0.29 -1.084,2.229 c 0,0 -0.359,0.865 -0.575,0.865 -0.216,0 -1.225,0.359 -1.439,0.287 -0.216,-0.072 -0.72,-0.504 -0.72,-0.504 l -0.648,-2.591 -0.43,-1.944 -0.938,-2.736 -1.584,0.865 -5.111,0.864 c 0,0 -3.454,0.791 -4.75,1.079 -1.295,0.289 -3.168,1.367 -4.68,1.801 -1.511,0.432 -4.535,1.943 -5.181,2.374 -0.649,0.434 -2.807,2.231 -2.807,2.231 l -1.367,1.693 c 0,0 0.934,-4.427 1.148,-5.003 l -5.181,3.383 4.248,-5.904 c 0,0 0.791,-0.502 1.008,-0.719 0.216,-0.215 1.08,-0.432 1.511,-0.577 0.431,-0.142 2.303,-0.79 2.52,-0.933 0.216,-0.146 0.721,-0.434 1.367,-0.864 0.648,-0.433 0.865,-0.433 1.295,-0.792 0.434,-0.361 0.935,-0.431 1.439,-0.612 0.506,-0.181 1.08,-0.469 1.441,-0.685 0.36,-0.216 0.721,-0.071 1.368,-0.648 0.648,-0.577 1.223,-1.008 1.223,-1.008 h 1.872 c 0.719,0 0.647,0.001 1.725,0.289 1.082,0.287 2.233,0.865 3.17,1.007 0.936,0.144 1.512,0.504 1.943,0.289 0.432,-0.216 2.52,-0.793 2.52,-0.793 0,0 -0.289,-1.152 0,-1.439 0.287,-0.289 0.719,-1.152 1.224,-1.871 0.503,-0.719 2.661,-2.664 2.661,-2.664 l 1.874,-1.153 2.159,-0.647 4.051,-0.575 c 0,0 2.348,-0.649 3.359,-0.791 1.012,-0.147 2.412,-0.289 2.412,-0.289 l -1.545,2.015 c 0,0 -1.509,1.226 -1.798,1.512 -0.288,0.287 -3.817,1.801 -3.817,1.801 0,0 -2.641,1.654 -3.156,2.158 -0.516,0.504 -0.663,1.651 -0.663,1.867 0,0.216 -0.63,2.03 -0.63,2.03 0,0 0.21,1.316 0.21,1.748 C -0.497,-2.632 0,0 0,0"
           style="fill:#fefae0;fill-opacity:1;fill-rule:nonzero;stroke:none"
           id="path170" /></g><g
         id="g172"
         transform="translate(322.4658,188.876)"
         style="fill:#fefae0;fill-opacity:1"><path
           d="m 0,0 v -1.657 l 1.6,-2.089 c 0,0 3.296,-1.08 3.585,-1.08 0.287,0 3.308,-0.574 4.101,-0.789 0.791,-0.217 5.543,-1.946 5.543,-1.946 l 1.835,-1.152 c 0,0 3.347,-2.949 3.347,-3.165 v -1.296 c 0,0 -4.174,3.238 -4.822,3.309 -0.649,0.072 -3.456,1.01 -4.605,1.657 -1.153,0.647 -2.232,0.937 -4.249,1.079 -2.016,0.144 -7.414,0.54 -7.414,0.54 0,0 -0.36,-0.035 -1.01,1.189 -0.646,1.222 -0.862,3.527 -0.862,3.527 0,0 0.505,1.008 1.153,1.223 0.647,0.216 1.512,0.65 1.512,0.65 z"
           style="fill:#fefae0;fill-opacity:1;fill-rule:nonzero;stroke:none"
           id="path174" /></g><g
         id="g176"
         transform="translate(314.4043,190.0986)"
         style="fill:#fefae0;fill-opacity:1"><path
           d="m 0,0 2.303,-0.649 c 0,0 0.505,-4.535 0.505,-4.967 0,-0.433 0.791,-1.152 1.006,-1.583 0.217,-0.434 1.729,-2.375 1.945,-2.664 0.214,-0.288 1.725,-1.51 2.807,-1.655 1.08,-0.145 2.448,0 2.952,0 0.502,0 1.943,0.43 2.734,0.287 0.791,-0.142 1.73,0 2.34,0 0.612,0 3.636,-0.272 3.851,-0.352 0.215,-0.08 4.032,-2.022 4.104,-2.239 0.07,-0.215 0.502,-1.801 0.502,-2.086 0,-0.289 0.793,-1.442 0.506,-2.664 -0.289,-1.225 -0.506,-3.024 -0.506,-3.024 l -1.065,-2.375 c 0,0 -1.812,4.535 -2.174,5.47 -0.357,0.937 -0.791,1.655 -1.511,2.231 -0.721,0.577 -2.807,0.577 -3.707,0.647 -0.9,0.072 -4.067,0 -5.721,0 -1.658,0 -6.049,1.081 -6.41,1.227 -0.357,0.143 -1.582,1.726 -3.02,3.165 -1.441,1.44 -1.873,2.159 -2.089,3.023 -0.215,0.864 -0.502,2.592 -0.288,3.239 0.217,0.649 0.72,3.313 0.72,3.313 z"
           style="fill:#fefae0;fill-opacity:1;fill-rule:nonzero;stroke:none"
           id="path178" /></g><g
         id="g180"
         transform="translate(309.0059,184.1943)"
         style="fill:#fefae0;fill-opacity:1"><path
           d="m 0,0 -4.533,-3.887 -0.289,-0.577 0.574,-2.302 2.16,-3.238 c 0,0 1.44,-1.37 2.088,-1.441 0.648,-0.071 4.822,-1.582 5.254,-1.657 0.434,-0.071 2.592,-0.357 3.312,-0.357 0.719,0 4.824,-0.865 5.112,-0.937 0.287,-0.073 2.228,-0.864 2.228,-0.864 l 4.035,-2.231 1.221,-0.575 v 2.015 l -0.646,2.735 c 0,0 -0.504,1.007 -1.225,1.08 -0.719,0.072 -2.664,0.791 -3.238,0.791 -0.576,0 -6.335,-0.287 -6.335,-0.287 0,0 -0.216,0.433 -1.547,0.792 -1.331,0.36 -3.644,2.016 -3.784,2.448 -0.139,0.43 -1.436,1.582 -1.725,2.376 -0.285,0.789 -1.15,3.237 -1.15,3.237 L 1.225,0.288 H 0.504 Z"
           style="fill:#fefae0;fill-opacity:1;fill-rule:nonzero;stroke:none"
           id="path182" /></g><g
         id="g184"
         transform="translate(342.4766,228.9678)"
         style="fill:#fefae0;fill-opacity:1"><path
           d="M 0,0 1.621,1.728 V 3.672 L -0.986,4.969 -10.797,3.455 -14.576,0 h 4.967 l 3.132,0.539 2.389,1.296 1.633,0.647 1.469,-0.754 z"
           style="fill:#fefae0;fill-opacity:1;fill-rule:nonzero;stroke:none"
           id="path186" /></g><g
         id="g188"
         transform="translate(338.4961,322.252)"
         style="fill:#fefae0;fill-opacity:1"><path
           d="m 0,0 8.977,-5.386 5.611,-5.61 3.812,-10.21 v -7.516 l -1.457,-6.062 -2.693,-5.832 0.338,6.717 -1.685,4.837 0.336,8.754 -2.13,8.302 -3.031,4.939 -6.394,4.15 z"
           style="fill:#fefae0;fill-opacity:1;fill-rule:nonzero;stroke:none"
           id="path190" /></g><g
         id="g192"
         transform="translate(306.2988,303.4814)"
         style="fill:#fefae0;fill-opacity:1"><path
           d="M 0,0 -4.259,0.65 -8.816,-0.504 -13.362,0.65 -17.624,0 -20.041,0.291 v -0.796 l 2.563,-0.515 4.261,0.515 4.393,-2.181 V -2.69 l 0.008,0.002 0.005,-0.002 v 0.004 l 4.407,2.181 4.26,-0.515 2.565,0.515 v 0.796 z"
           style="fill:#fefae0;fill-opacity:1;fill-rule:nonzero;stroke:none"
           id="path194" /></g><g
         id="g196"
         transform="translate(309.6855,310.3594)"
         style="fill:#fefae0;fill-opacity:1"><path
           d="m 0,0 -5.9,0.899 -6.307,-1.597 -6.29,1.597 L -24.396,0 -27.742,0.401 V -0.7 l 3.547,-0.713 5.9,0.713 6.08,-3.017 v -0.009 l 0.008,0.006 0.009,-0.006 v 0.009 l 6.099,3.017 5.898,-0.713 3.547,0.713 v 1.101 z"
           style="fill:#fefae0;fill-opacity:1;fill-rule:nonzero;stroke:none"
           id="path198" /></g><g
         id="g200"
         transform="translate(325.0498,328.3389)"
         style="fill:#fefae0;fill-opacity:1"><path
           d="M 0,0 C -4.265,1.587 -8.632,2.898 -13.063,3.933 -17.972,3.705 -22.712,3.274 -27.581,2.606 -32.435,3.272 -37.165,3.704 -42.058,3.933 -46.491,2.898 -50.856,1.586 -55.123,0 c -3.033,-0.568 -4.549,-0.91 -7.563,-1.707 -0.319,-0.779 -0.475,-1.173 -0.776,-1.957 3.597,1.228 5.417,1.758 9.079,2.65 4.242,1.465 8.577,2.662 12.969,3.578 4.698,-0.802 9.21,-1.781 13.814,-3.007 4.632,1.229 9.169,2.208 13.892,3.007 4.394,-0.918 8.729,-2.113 12.97,-3.578 3.661,-0.892 5.481,-1.422 9.077,-2.65 C 8.038,-2.88 7.884,-2.486 7.563,-1.707 4.548,-0.91 3.034,-0.568 0,0"
           style="fill:#fefae0;fill-opacity:1;fill-rule:nonzero;stroke:none"
           id="path202" /></g><g
         id="g204"
         transform="translate(304.1113,293.1045)"
         style="fill:#fefae0;fill-opacity:1"><path
           d="M 0,0 -1.729,-1.871 -4.174,-4.668 H -6.623 -6.661 -9.07 l -2.448,2.797 -1.728,1.871 -1.151,-2.334 2.303,-2.334 2.089,-1.811 h 3.344 0.038 3.383 l 2.09,1.811 2.3,2.334 z"
           style="fill:#fefae0;fill-opacity:1;fill-rule:nonzero;stroke:none"
           id="path206" /></g><g
         id="g208"
         transform="translate(360.6152,266.7588)"
         style="fill:#fefae0;fill-opacity:1"><path
           d="m 0,0 c 0,0 -6.533,-12.093 -6.828,-12.74 -0.296,-0.649 -0.944,-2.376 -2.24,-4.752 -1.295,-2.375 -2.958,-4.534 -4.286,-5.83 -1.329,-1.294 -4.277,-3.887 -4.277,-3.887 0,0 -3.044,1.08 -2.963,1.297 0.08,0.215 1.16,2.59 2.455,3.238 1.297,0.648 4.68,3.671 5.689,5.182 1.005,1.512 3.598,6.911 3.813,7.775 0.215,0.863 1.809,3.671 1.809,3.671 z"
           style="fill:#fefae0;fill-opacity:1;fill-rule:nonzero;stroke:none"
           id="path210" /></g><g
         id="g212"
         transform="translate(332.998,250.5635)"
         style="fill:#fefae0;fill-opacity:1"><path
           d="m 0,0 0.843,0.756 c 0,0 1.294,-3.24 0.97,-3.889 C 1.49,-3.78 0.563,-5.292 0,-5.723 c -0.563,-0.433 -0.594,-1.296 -1.01,-1.728 -0.415,-0.432 -0.013,-0.97 0,-1.296 0.016,-0.323 1.097,-0.431 1.853,-0.97 0.754,-0.541 2.159,-1.837 2.159,-1.837 0,0 1.404,0.215 1.941,0.54 0.541,0.324 2.053,0.108 2.916,-0.54 0.866,-0.648 3.348,-1.08 3.241,-1.296 -0.11,-0.216 2.027,-3.777 2.027,-3.777 0,0 -3.248,1.617 -4.635,1.833 -1.388,0.216 -2.84,0.108 -4.006,0.108 -1.16,0 -5.496,-1.941 -5.496,-1.941 L 0,-13.713 c 0,0 -1.965,0.215 -2.83,0.973 -0.862,0.754 -2.268,2.375 -2.268,2.375 l -1.195,1.08 c 0,0 -0.651,1.834 0,2.05 0.656,0.216 3.5,1.296 4.291,2.267 0.793,0.972 1.404,2.484 1.404,2.484 z"
           style="fill:#fefae0;fill-opacity:1;fill-rule:nonzero;stroke:none"
           id="path214" /></g><g
         id="g216"
         transform="translate(310.5527,278.2334)"><path
           d="M 0,0 C 0,0 -0.604,1.479 -0.904,1.675 -1.207,1.869 -1.869,2.23 -2.713,2.168 -3.559,2.109 -6.456,0.723 -6.814,0.48 -7.178,0.24 -7.979,-0.061 -9.178,-0.303 c -1.198,-0.242 -1.679,-0.483 -2.163,-0.603 -0.455,-0.114 -1.61,-0.282 -1.735,-0.299 -0.123,0.017 -1.255,0.185 -1.711,0.299 -0.483,0.12 -0.964,0.361 -2.164,0.603 -1.199,0.242 -1.998,0.543 -2.361,0.783 -0.362,0.243 -3.256,1.629 -4.102,1.688 C -24.259,2.23 -24.921,1.869 -25.223,1.675 -25.525,1.479 -26.129,0 -26.129,0 c -0.123,-0.294 -0.241,-1.811 0,-2.111 0.242,-0.303 1.208,-1.328 1.992,-2.173 0.783,-0.844 1.026,-1.507 1.689,-3.077 0.663,-1.569 0.603,-1.026 1.869,-3.258 1.268,-2.231 2.534,-3.135 3.38,-4.094 0.845,-0.959 1.567,-1.092 1.386,-3.144 -0.181,-2.051 -0.422,-2.473 -0.663,-3.799 -0.242,-1.328 -0.664,-1.449 -2.353,-2.293 -1.69,-0.844 -2.01,-1.131 -2.01,-1.131 0,0 1.467,-1.162 2.071,-1.463 0.602,-0.304 1.267,-0.543 1.628,-0.887 0.362,-0.345 1.268,-0.019 1.63,0 0.349,0.018 2.305,0.481 2.434,0.513 0.13,-0.032 2.107,-0.495 2.459,-0.513 0.361,-0.019 1.265,-0.345 1.629,0 0.361,0.344 1.025,0.583 1.629,0.887 0.603,0.301 2.068,1.463 2.068,1.463 0,0 -0.319,0.287 -2.007,1.131 -1.69,0.844 -2.112,0.965 -2.354,2.293 -0.241,1.326 -0.483,1.748 -0.664,3.799 -0.181,2.052 0.545,2.185 1.386,3.144 0.846,0.959 2.116,1.863 3.379,4.094 1.268,2.232 1.206,1.689 1.871,3.258 0.664,1.57 0.905,2.233 1.689,3.077 0.784,0.845 1.749,1.87 1.991,2.173 0.24,0.3 0.123,1.817 0,2.111"
           style="fill:#fefae0;fill-opacity:1;fill-rule:nonzero;stroke:none"
           id="path218" /></g><g
         id="g220"
         transform="translate(315.5566,287.0576)"
         style="fill:#fefae0;fill-opacity:1"><path
           d="m 0,0 c 0,0 -2.231,-5.254 -2.375,-5.47 -0.143,-0.216 -1.799,-2.087 -1.799,-2.087 l 0.431,-2.448 c 0,0 3.887,6.48 3.743,6.694 C -0.145,-3.096 0,0 0,0"
           style="fill:#fefae0;fill-opacity:1;fill-rule:nonzero;stroke:none"
           id="path222" /></g><g
         id="g224"
         transform="translate(313.5508,272.5908)"
         style="fill:#fefae0;fill-opacity:1"><path
           d="M 0,0 1.743,0.781 2.747,-0.281 3.236,-1.373 2.519,-2.699 0.673,-3.527 -0.396,-2.493 -0.885,-1.4 Z"
           style="fill:#fefae0;fill-opacity:1;fill-rule:nonzero;stroke:none"
           id="path226" /></g><g
         id="g228"
         transform="translate(318.2285,278.6855)"
         style="fill:#fefae0;fill-opacity:1"><path
           d="m 0,0 0.984,-1 0.358,-1.059 -0.653,-1.094 -1.574,-0.704 -1.031,0.915 -0.412,1.096 0.808,1.167 z"
           style="fill:#fefae0;fill-opacity:1;fill-rule:nonzero;stroke:none"
           id="path230" /></g><g
         id="g232"
         transform="translate(320.873,283.7432)"
         style="fill:#fefae0;fill-opacity:1"><path
           d="m 0,0 0.969,-0.938 0.222,-1.023 -0.58,-0.865 -1.3,-0.581 -1.002,0.796 -0.332,1.099 0.732,0.934 z"
           style="fill:#fefae0;fill-opacity:1;fill-rule:nonzero;stroke:none"
           id="path234" /></g><g
         id="g236"
         transform="translate(323.0566,288.2939)"
         style="fill:#fefae0;fill-opacity:1"><path
           d="m 0,0 0.949,-0.874 0.097,-0.987 -0.515,-0.633 -1.027,-0.46 -0.971,0.676 -0.25,1.108 0.652,0.693 z"
           style="fill:#fefae0;fill-opacity:1;fill-rule:nonzero;stroke:none"
           id="path238" /></g><g
         id="g240"
         transform="translate(317.6211,267.8945)"
         style="fill:#fefae0;fill-opacity:1"><path
           d="M 0,0 C 0.881,0.153 1.322,0.236 2.199,0.415 2.506,-0.087 2.656,-0.339 2.959,-0.843 3.025,-1.32 3.063,-1.558 3.125,-2.036 2.607,-2.522 2.346,-2.763 1.813,-3.239 0.839,-3.427 0.35,-3.511 -0.623,-3.667 -0.938,-3.156 -1.094,-2.899 -1.4,-2.382 -1.445,-1.903 -1.463,-1.664 -1.508,-1.185 -0.898,-0.718 -0.594,-0.479 0,0"
           style="fill:#fefae0;fill-opacity:1;fill-rule:nonzero;stroke:none"
           id="path242" /></g><g
         id="g244"
         transform="translate(324.5879,273.2373)"
         style="fill:#fefae0;fill-opacity:1"><path
           d="m 0,0 c 0.336,-0.456 0.502,-0.684 0.842,-1.136 0.054,-0.448 0.08,-0.673 0.13,-1.122 -0.402,-0.422 -0.605,-0.631 -1.02,-1.049 -0.784,-0.211 -1.178,-0.31 -1.966,-0.501 -0.351,0.434 -0.523,0.652 -0.869,1.09 -0.049,0.472 -0.074,0.705 -0.131,1.175 0.485,0.417 0.723,0.628 1.198,1.055 C -1.088,-0.303 -0.727,-0.205 0,0"
           style="fill:#fefae0;fill-opacity:1;fill-rule:nonzero;stroke:none"
           id="path246" /></g><g
         id="g248"
         transform="translate(328.4141,278.1738)"
         style="fill:#fefae0;fill-opacity:1"><path
           d="M 0,0 C 0.357,-0.405 0.537,-0.608 0.898,-1.01 0.936,-1.433 0.955,-1.649 0.984,-2.074 0.676,-2.419 0.521,-2.592 0.203,-2.935 c -0.611,-0.211 -0.92,-0.312 -1.531,-0.51 -0.375,0.358 -0.561,0.538 -0.93,0.901 -0.058,0.461 -0.087,0.691 -0.148,1.15 0.38,0.354 0.568,0.532 0.939,0.887 C -0.881,-0.31 -0.587,-0.21 0,0"
           style="fill:#fefae0;fill-opacity:1;fill-rule:nonzero;stroke:none"
           id="path250" /></g><g
         id="g252"
         transform="translate(331.1865,282.7617)"
         style="fill:#fefae0;fill-opacity:1"><path
           d="m 0,0 c 0.378,-0.358 0.565,-0.538 0.942,-0.893 0.014,-0.403 0.02,-0.604 0.03,-1.01 -0.239,-0.262 -0.362,-0.391 -0.605,-0.654 -0.457,-0.188 -0.683,-0.279 -1.142,-0.46 -0.384,0.286 -0.574,0.43 -0.953,0.721 -0.06,0.453 -0.091,0.684 -0.158,1.136 0.299,0.272 0.448,0.409 0.741,0.688 C -0.686,-0.288 -0.456,-0.191 0,0"
           style="fill:#fefae0;fill-opacity:1;fill-rule:nonzero;stroke:none"
           id="path254" /></g><g
         id="g256"
         transform="translate(320.8281,261.2236)"
         style="fill:#fefae0;fill-opacity:1"><path
           d="M 0,0 C 0.855,-0.009 1.283,-0.006 2.143,0.009 2.328,-0.545 2.422,-0.824 2.607,-1.379 2.576,-1.861 2.561,-2.107 2.529,-2.588 1.947,-2.975 1.652,-3.164 1.061,-3.539 c -0.944,-0.002 -1.413,0.003 -2.352,0.029 -0.191,0.565 -0.286,0.844 -0.475,1.41 0.055,0.482 0.081,0.723 0.133,1.204 C -0.973,-0.545 -0.647,-0.362 0,0"
           style="fill:#fefae0;fill-opacity:1;fill-rule:nonzero;stroke:none"
           id="path258" /></g><g
         id="g260"
         transform="translate(328.3945,265.2061)"
         style="fill:#fefae0;fill-opacity:1"><path
           d="M 0,0 C 0.23,-0.511 0.346,-0.768 0.578,-1.278 0.543,-1.732 0.527,-1.959 0.486,-2.414 0.023,-2.755 -0.211,-2.923 -0.68,-3.257 c -0.779,-0.061 -1.168,-0.085 -1.947,-0.124 -0.243,0.494 -0.364,0.743 -0.609,1.24 0.041,0.475 0.062,0.709 0.097,1.184 0.533,0.321 0.799,0.486 1.324,0.82 C -1.09,-0.091 -0.727,-0.063 0,0"
           style="fill:#fefae0;fill-opacity:1;fill-rule:nonzero;stroke:none"
           id="path262" /></g><g
         id="g264"
         transform="translate(332.9551,269.3525)"
         style="fill:#fefae0;fill-opacity:1"><path
           d="M 0,0 C 0.268,-0.468 0.404,-0.701 0.673,-1.168 0.627,-1.594 0.603,-1.809 0.552,-2.234 0.188,-2.515 0.007,-2.656 -0.362,-2.936 c -0.622,-0.091 -0.931,-0.131 -1.55,-0.211 -0.291,0.426 -0.43,0.64 -0.718,1.067 0.033,0.465 0.051,0.699 0.071,1.163 0.43,0.276 0.645,0.417 1.065,0.698 C -0.896,-0.137 -0.6,-0.094 0,0"
           style="fill:#fefae0;fill-opacity:1;fill-rule:nonzero;stroke:none"
           id="path266" /></g><g
         id="g268"
         transform="translate(336.4775,273.3486)"
         style="fill:#fefae0;fill-opacity:1"><path
           d="M 0,0 C 0.296,-0.426 0.444,-0.637 0.741,-1.06 0.679,-1.463 0.647,-1.662 0.577,-2.065 0.297,-2.277 0.155,-2.383 -0.126,-2.593 c -0.475,-0.098 -0.713,-0.145 -1.186,-0.236 -0.314,0.356 -0.47,0.534 -0.782,0.893 0.027,0.457 0.035,0.689 0.055,1.149"
           style="fill:#fefae0;fill-opacity:1;fill-rule:nonzero;stroke:none"
           id="path270" /></g><g
         id="g272"
         transform="translate(281.231,272.5908)"
         style="fill:#fefae0;fill-opacity:1"><path
           d="m 0,0 -1.744,0.781 -1.003,-1.062 -0.488,-1.092 0.717,-1.326 1.846,-0.828 1.068,1.034 0.488,1.093 z"
           style="fill:#fefae0;fill-opacity:1;fill-rule:nonzero;stroke:none"
           id="path274" /></g><g
         id="g276"
         transform="translate(276.5542,278.6855)"
         style="fill:#fefae0;fill-opacity:1"><path
           d="m 0,0 -0.984,-1 -0.36,-1.059 0.651,-1.094 1.576,-0.704 1.033,0.915 0.411,1.096 -0.808,1.167 z"
           style="fill:#fefae0;fill-opacity:1;fill-rule:nonzero;stroke:none"
           id="path278" /></g><g
         id="g280"
         transform="translate(273.9077,283.7432)"
         style="fill:#fefae0;fill-opacity:1"><path
           d="m 0,0 -0.967,-0.938 -0.224,-1.023 0.579,-0.865 1.303,-0.581 1.001,0.796 0.332,1.099 -0.73,0.934 z"
           style="fill:#fefae0;fill-opacity:1;fill-rule:nonzero;stroke:none"
           id="path282" /></g><g
         id="g284"
         transform="translate(271.7236,288.2939)"
         style="fill:#fefae0;fill-opacity:1"><path
           d="m 0,0 -0.947,-0.874 -0.097,-0.987 0.515,-0.633 1.027,-0.46 0.97,0.676 0.25,1.108 -0.651,0.693 z"
           style="fill:#fefae0;fill-opacity:1;fill-rule:nonzero;stroke:none"
           id="path286" /></g><g
         id="g288"
         transform="translate(277.1616,267.8945)"
         style="fill:#fefae0;fill-opacity:1"><path
           d="m 0,0 c -0.882,0.153 -1.324,0.236 -2.2,0.415 -0.305,-0.502 -0.456,-0.754 -0.759,-1.258 -0.068,-0.477 -0.104,-0.715 -0.166,-1.193 0.517,-0.486 0.779,-0.727 1.312,-1.203 0.973,-0.188 1.462,-0.272 2.435,-0.428 0.316,0.511 0.47,0.768 0.778,1.285 0.045,0.479 0.062,0.718 0.105,1.197 C 0.896,-0.718 0.594,-0.479 0,0"
           style="fill:#fefae0;fill-opacity:1;fill-rule:nonzero;stroke:none"
           id="path290" /></g><g
         id="g292"
         transform="translate(270.1934,273.2373)"
         style="fill:#fefae0;fill-opacity:1"><path
           d="m 0,0 c -0.335,-0.456 -0.502,-0.684 -0.841,-1.136 -0.054,-0.448 -0.082,-0.673 -0.13,-1.122 0.401,-0.422 0.604,-0.631 1.019,-1.049 0.784,-0.211 1.177,-0.31 1.966,-0.501 0.352,0.434 0.524,0.652 0.869,1.09 0.05,0.472 0.075,0.705 0.132,1.175 C 2.53,-1.126 2.291,-0.915 1.818,-0.488 1.089,-0.303 0.726,-0.205 0,0"
           style="fill:#fefae0;fill-opacity:1;fill-rule:nonzero;stroke:none"
           id="path294" /></g><g
         id="g296"
         transform="translate(266.3687,278.1738)"
         style="fill:#fefae0;fill-opacity:1"><path
           d="m 0,0 c -0.357,-0.405 -0.538,-0.608 -0.9,-1.01 -0.038,-0.423 -0.056,-0.639 -0.085,-1.064 0.308,-0.345 0.464,-0.518 0.782,-0.861 0.61,-0.211 0.918,-0.312 1.531,-0.51 0.374,0.358 0.561,0.538 0.93,0.901 0.057,0.461 0.087,0.691 0.147,1.15 C 2.025,-1.04 1.837,-0.862 1.468,-0.507 0.879,-0.31 0.586,-0.21 0,0"
           style="fill:#fefae0;fill-opacity:1;fill-rule:nonzero;stroke:none"
           id="path298" /></g><g
         id="g300"
         transform="translate(263.5947,282.7617)"
         style="fill:#fefae0;fill-opacity:1"><path
           d="m 0,0 c -0.378,-0.358 -0.564,-0.538 -0.942,-0.893 -0.014,-0.403 -0.019,-0.604 -0.028,-1.01 0.238,-0.262 0.36,-0.391 0.602,-0.654 0.457,-0.188 0.685,-0.279 1.144,-0.46 0.382,0.286 0.573,0.43 0.951,0.721 0.063,0.453 0.092,0.684 0.16,1.136 C 1.588,-0.888 1.438,-0.751 1.145,-0.472 0.687,-0.288 0.454,-0.191 0,0"
           style="fill:#fefae0;fill-opacity:1;fill-rule:nonzero;stroke:none"
           id="path302" /></g><g
         id="g304"
         transform="translate(273.9536,261.2236)"
         style="fill:#fefae0;fill-opacity:1"><path
           d="m 0,0 c -0.854,-0.009 -1.283,-0.006 -2.141,0.009 -0.187,-0.554 -0.28,-0.833 -0.467,-1.388 0.033,-0.482 0.047,-0.728 0.08,-1.209 0.58,-0.387 0.876,-0.576 1.467,-0.951 0.943,-0.002 1.413,0.003 2.351,0.029 0.191,0.565 0.288,0.844 0.477,1.41 C 1.71,-1.618 1.685,-1.377 1.634,-0.896 0.974,-0.545 0.646,-0.362 0,0"
           style="fill:#fefae0;fill-opacity:1;fill-rule:nonzero;stroke:none"
           id="path306" /></g><g
         id="g308"
         transform="translate(266.3877,265.2061)"
         style="fill:#fefae0;fill-opacity:1"><path
           d="m 0,0 c -0.23,-0.511 -0.345,-0.768 -0.579,-1.278 0.035,-0.454 0.052,-0.681 0.092,-1.136 0.464,-0.341 0.698,-0.509 1.167,-0.843 0.778,-0.061 1.168,-0.085 1.946,-0.124 0.243,0.494 0.365,0.743 0.609,1.24 -0.041,0.475 -0.06,0.709 -0.096,1.184 -0.534,0.321 -0.8,0.486 -1.325,0.82 C 1.089,-0.091 0.725,-0.063 0,0"
           style="fill:#fefae0;fill-opacity:1;fill-rule:nonzero;stroke:none"
           id="path310" /></g><g
         id="g312"
         transform="translate(261.8271,269.3525)"
         style="fill:#fefae0;fill-opacity:1"><path
           d="m 0,0 c -0.267,-0.468 -0.404,-0.701 -0.672,-1.168 0.046,-0.426 0.069,-0.641 0.12,-1.066 0.364,-0.281 0.545,-0.422 0.914,-0.702 0.621,-0.091 0.93,-0.131 1.552,-0.211 0.288,0.426 0.428,0.64 0.714,1.067 C 2.597,-1.615 2.58,-1.381 2.557,-0.917 2.128,-0.641 1.915,-0.5 1.495,-0.219 0.897,-0.137 0.6,-0.094 0,0"
           style="fill:#fefae0;fill-opacity:1;fill-rule:nonzero;stroke:none"
           id="path314" /></g><g
         id="g316"
         transform="translate(258.3037,273.3486)"
         style="fill:#fefae0;fill-opacity:1"><path
           d="m 0,0 c -0.295,-0.426 -0.443,-0.637 -0.74,-1.06 0.06,-0.403 0.095,-0.602 0.165,-1.005 0.28,-0.212 0.42,-0.318 0.702,-0.528 0.475,-0.098 0.713,-0.145 1.184,-0.236 0.315,0.356 0.472,0.534 0.784,0.893 -0.026,0.457 -0.037,0.689 -0.056,1.149"
           style="fill:#fefae0;fill-opacity:1;fill-rule:nonzero;stroke:none"
           id="path318" /></g><g
         id="g320"
         transform="translate(320.4844,239.2959)"
         style="fill:#fefae0;fill-opacity:1"><path
           d="m 0,0 -1.541,-2.499 -0.775,0.622 c -0.268,1.467 -1.19,6.47 -1.709,8.042 -0.387,1.18 -2.225,5.119 -3.342,7.47 1.152,-0.08 2.062,-0.17 2.316,-0.266 0.864,-0.321 4.802,-1.346 5.235,-1.346 0.075,0 0.215,-0.012 0.393,-0.031 z m -41.967,6.165 c -0.518,-1.572 -1.442,-6.575 -1.707,-8.042 L -44.451,-2.499 -45.992,0 -46.57,11.992 c 0.18,0.019 0.318,0.031 0.395,0.031 0.432,0 4.369,1.025 5.233,1.346 0.253,0.095 1.151,0.184 2.294,0.266 -1.123,-2.371 -2.936,-6.305 -3.319,-7.47 m 57.483,18.923 c -1.62,-0.756 -2.008,-1.297 -3.002,-1.512 -0.994,-0.216 -2.253,-0.541 -2.002,-1.403 0.252,-0.864 1.476,-3.779 1.404,-4.319 -0.073,-0.541 -1.225,-3.024 -1.404,-3.24 -0.179,-0.218 -2.664,-0.323 -3.096,-0.431 -0.43,-0.109 -0.004,-0.433 -3.835,0 -3.83,0.431 -6.782,0.971 -7.573,0.971 -0.792,0 -3.49,0.648 -4.895,0.54 -1.402,-0.108 -3.976,-0.324 -4.688,-0.432 -0.71,-0.108 -1.648,-0.539 -1.648,-0.539 l 0.938,-0.759 c 0,0 1.538,-0.052 3.361,-0.132 l -0.412,-1.593 -0.66,-5.784 -1.014,0.313 -2.336,3.803 -1.189,-2.682 -0.24,-0.348 -0.821,-0.059 -1.657,2.535 -0.954,-2.142 -0.951,-0.131 -1.839,1.625 -1.836,-1.625 -0.952,0.131 -0.954,2.141 -1.656,-2.534 -0.821,0.059 -0.241,0.348 -1.188,2.682 -2.338,-3.803 -1.012,-0.313 -0.637,5.664 -0.44,1.712 c 1.826,0.081 3.365,0.133 3.365,0.133 l 0.936,0.759 c 0,0 -0.936,0.431 -1.646,0.539 -0.711,0.108 -3.283,0.324 -4.687,0.432 -1.403,0.108 -4.104,-0.54 -4.896,-0.54 -0.791,0 -3.743,-0.54 -7.574,-0.971 -3.83,-0.433 -3.402,-0.109 -3.834,0 -0.432,0.108 -2.917,0.213 -3.096,0.431 -0.18,0.216 -1.331,2.699 -1.404,3.24 -0.071,0.54 1.152,3.455 1.404,4.319 0.252,0.862 -1.008,1.187 -2.002,1.403 -0.993,0.215 -1.381,0.756 -3.001,1.512 -1.618,0.756 -2.915,3.994 -3.131,4.32 l 0.634,-2.701 c 0,0 1.201,-1.942 1.551,-2.482 0.349,-0.539 2.242,-1.296 3.947,-2.376 1.706,-1.079 -0.626,-1.188 -1.057,-1.89 -0.432,-0.701 -0.972,-2.861 -1.081,-3.293 -0.106,-0.432 -0.106,-1.621 0.326,-2.809 0.431,-1.187 3.13,-2.482 3.814,-2.589 0.684,-0.109 2.664,-0.757 3.096,-0.757 0.432,0 3.239,0.324 3.834,0.757 0.171,0.123 0.489,0.236 0.862,0.337 l 0.59,-12.263 3.118,-5.058 3.312,2.663 0.071,0.399 c 0.32,1.797 1.25,6.761 1.704,8.146 0.373,1.127 2.149,4.926 3.316,7.365 l 0.257,-0.993 0.865,-7.676 3.627,1.123 0.978,1.589 0.709,-1.023 2.658,-0.192 0.48,0.733 0.055,-0.121 2.689,-0.371 1.287,1.137 1.288,-1.137 2.688,0.371 0.055,0.119 0.479,-0.731 2.661,0.192 0.706,1.023 0.978,-1.589 3.629,-1.123 0.864,7.676 0.256,0.993 c 1.165,-2.439 2.947,-6.238 3.316,-7.365 0.439,-1.334 1.307,-5.912 1.705,-8.146 l 0.07,-0.399 3.314,-2.663 3.118,5.058 0.591,12.263 c 0.372,-0.101 0.69,-0.214 0.859,-0.337 0.597,-0.433 3.405,-0.757 3.835,-0.757 0.432,0 2.412,0.648 3.096,0.757 0.683,0.107 3.384,1.402 3.814,2.589 0.434,1.188 0.434,2.377 0.324,2.809 -0.107,0.432 -0.646,2.592 -1.08,3.293 -0.429,0.702 -2.761,0.811 -1.056,1.89 1.705,1.08 3.597,1.837 3.947,2.376 0.35,0.54 1.551,2.482 1.551,2.482 l 0.634,2.701 c -0.214,-0.326 -1.512,-3.564 -3.13,-4.32"
           style="fill:#fefae0;fill-opacity:1;fill-rule:nonzero;stroke:none"
           id="path322" /></g><g
         id="g324"
         transform="translate(298.1357,240.1982)"
         style="fill:#fefae0;fill-opacity:1"><path
           d="M 0,0 7.991,-2.375 16.457,-5.76 10.222,-5.011 4.392,-5.76 2.735,-3.529 Z"
           style="fill:#fefae0;fill-opacity:1;fill-rule:nonzero;stroke:none"
           id="path326" /></g><g
         id="g328"
         transform="translate(303.1016,233.4307)"
         style="fill:#fefae0;fill-opacity:1"><path
           d="m 0,0 5.111,0.506 7.633,-0.254 2.191,-1.331 -5.79,0.288 -3.889,-0.72 -3.527,-1.655 z"
           style="fill:#fefae0;fill-opacity:1;fill-rule:nonzero;stroke:none"
           id="path330" /></g><g
         id="g332"
         transform="translate(298.7139,207.7842)"
         style="fill:#fefae0;fill-opacity:1"><path
           d="M 0,0 2.802,1.18 3.678,2.671 4.014,4.546 3.238,7.855 1.292,19.828 2.007,19.994 5.734,7.582 6.354,3.775 5.116,1.373 3.328,-0.182 0.203,-0.701 Z"
           style="fill:#fefae0;fill-opacity:1;fill-rule:nonzero;stroke:none"
           id="path334" /></g><g
         id="g336"
         transform="translate(306.8242,214.9316)"
         style="fill:#fefae0;fill-opacity:1"><path
           d="m 0,0 0.261,-0.228 3.009,-2.041 2.405,-2.699 3.271,-1.668 2.804,-2.795 2,-2.679 -2.87,2.004 -2.327,1.683 -2.811,1.586 -2.737,0.579 -0.868,-1.227 -1.068,-0.938 -1.529,-0.416 -2.181,-0.2 -1.697,-0.392 h -1.615 l -2.735,-0.477 3.635,1.485 2.412,0.518 2.181,0.867 1.329,0.982 1.069,1.221 0.066,1.736 z"
           style="fill:#fefae0;fill-opacity:1;fill-rule:nonzero;stroke:none"
           id="path338" /></g><g
         id="g340"
         transform="translate(281.4155,190.1191)"
         style="fill:#fefae0;fill-opacity:1"><path
           d="M 0,0 2.279,2.155 3.938,2.763 6.09,2.938 8.3,3.108 10.178,3.672 12.043,4.7 13.52,5.579 h 1.563 l 0.983,-0.892 1,0.892 h 1.561 L 20.112,4.696 21.969,3.672 23.846,3.108 26.056,2.938 28.209,2.763 29.866,2.155 32.145,0 31.86,-0.394 29.082,1.089 27.661,1.276 26.17,1.39 24.035,1.312 22.598,1.115 21.275,1.364 20.44,1.96 19.625,2.333 H 17.079 L 16.052,1.358 15.066,2.333 H 12.523 L 11.706,1.96 10.872,1.364 9.546,1.115 8.088,1.313 5.948,1.39 4.473,1.273 3.063,1.089 0.285,-0.394 Z"
           style="fill:#fefae0;fill-opacity:1;fill-rule:nonzero;stroke:none"
           id="path342" /></g><g
         id="g344"
         transform="translate(294.4941,183.6611)"
         style="fill:#fefae0;fill-opacity:1"><path
           d="M 0,0 -3.173,1.168 -5.897,2.509 -9.316,5.016 -9.073,5.437 -5.678,3.945 -2.671,2.854 0.299,2.359 2.97,2.361 H 5.729 L 8.658,2.854 11.68,3.951 15.061,5.437 15.305,5.016 11.922,2.531 9.186,1.178 5.99,0 Z"
           style="fill:#fefae0;fill-opacity:1;fill-rule:nonzero;stroke:none"
           id="path346" /></g><g
         id="g348"
         transform="translate(348.0723,331.7031)"
         style="fill:#fefae0;fill-opacity:1"><path
           d="m 0,0 c -2.51,2.029 -3.813,3.011 -6.512,4.895 -8.578,2.604 -17.084,4.379 -25.985,5.438 -2.564,0.209 -3.851,0.282 -6.437,0.359 -2.451,-0.127 -3.677,-0.22 -6.123,-0.466 0.918,-1.18 1.368,-1.775 2.244,-2.971 5.932,0.502 11.676,0.108 17.618,-0.259 C -19.859,6.065 -14.369,5.241 -9.204,3.604 -5.451,2.311 -3.607,1.587 0,0"
           style="fill:#fefae0;fill-opacity:1;fill-rule:nonzero;stroke:none"
           id="path350" /></g><g
         id="g352"
         transform="translate(327.6426,161.9854)"
         style="fill:#fefae0;fill-opacity:1"><path
           d="M 0,0 -1.584,2.641 -3.813,4.398 -6.742,5.749 -9.853,6.51 h -3.284 l -3.518,0.763 -3.519,1.172 -2.781,1.528 -2.029,1.757 -1.787,2.698 -1.262,3.285 -2.121,0.527 v -0.01 0.01 l -2.121,-0.527 -1.262,-3.285 -1.787,-2.698 -2.029,-1.757 -2.78,-1.528 -3.519,-1.172 -3.52,-0.763 h -3.284 L -53.563,5.749 -56.497,4.398 -58.725,2.641 -60.309,0 -60.836,-2.58 v -1.994 l 3.166,4.047 2.582,2.228 3.46,0.997 4.515,0.646 4.793,0.409 2.654,0.821 3.43,1.821 2.377,1.934 1.818,1.995 1.887,1.992 v 0.012 -0.012 l 1.886,-1.992 1.821,-1.995 2.376,-1.934 3.427,-1.821 2.656,-0.821 4.793,-0.409 4.515,-0.646 3.461,-0.997 2.582,-2.228 3.164,-4.047 v 1.994 z"
           style="fill:#fefae0;fill-opacity:1;fill-rule:nonzero;stroke:none"
           id="path354" /></g><g
         id="g356"
         transform="translate(212.1172,322.6182)"
         style="fill:#fefae0;fill-opacity:1"><path
           d="M 0,0 V 6.621 L 4.031,9.085 H 8.638 L 12.093,7.199 16.03,3.416 24.335,1.339 18.106,-12.601 H 10.692 L 2.879,-6.622 Z"
           style="fill:#fefae0;fill-opacity:1;fill-rule:nonzero;stroke:none"
           id="path358" /></g><g
         id="g360"
         transform="translate(381.832,322.6182)"
         style="fill:#fefae0;fill-opacity:1"><path
           d="m 0,0 v 6.621 l -4.03,2.464 h -4.606 l -3.456,-1.886 -3.939,-3.783 -8.303,-2.077 6.227,-13.94 h 7.417 l 7.811,5.979 z"
           style="fill:#fefae0;fill-opacity:1;fill-rule:nonzero;stroke:none"
           id="path362" /></g><g
         id="g364"
         transform="translate(288.6138,226.665)"
         style="fill:#fefae0;fill-opacity:1"><path
           d="m 0,0 -2.859,1.584 -3.094,1.006 -0.71,-0.061 0.277,-0.226 1.008,-0.647 1.048,-1.224 0.123,-1.44 -0.123,-1.584 -1.133,-1.554 2.101,1.05 z m -10.427,-5.299 -1.574,0.979 -1.087,1.152 -0.656,1.567 0.448,1.456 0.54,1.305 -0.468,-0.151 -2.609,-1.945 -2.286,-3.312 4.103,-1.114 h 3.096 z m -3.819,-1.793 -6.68,1.818 3.832,5.553 3.065,2.284 4.416,1.444 3.861,0.335 3.586,-1.168 5.097,-2.822 -5.303,-4.883 -3.933,-1.968 -4.502,-0.593 z"
           style="fill:#fefae0;fill-opacity:1;fill-rule:nonzero;stroke:none"
           id="path366" /></g><g
         id="g368"
         transform="translate(309.7041,223.5693)"
         style="fill:#fefae0;fill-opacity:1"><path
           d="M 0,0 2.101,-1.051 0.966,0.504 0.844,2.088 0.966,3.527 2.015,4.752 3.022,5.398 3.3,5.625 2.589,5.686 -0.505,4.68 -3.362,3.096 Z m 7.558,-2.267 h 3.094 L 14.755,-1.152 12.468,2.16 9.86,4.104 9.392,4.256 9.932,2.951 10.38,1.495 9.724,-0.072 8.636,-1.225 7.062,-2.203 Z m -0.116,-1.729 -4.504,0.593 -3.929,1.967 -5.303,4.883 5.096,2.823 3.589,1.168 3.858,-0.335 4.416,-1.445 3.064,-2.283 3.834,-5.554 -6.682,-1.817 z"
           style="fill:#fefae0;fill-opacity:1;fill-rule:nonzero;stroke:none"
           id="path370" /></g><g
         id="g372"
         transform="translate(281.0688,303.9404)"
         style="fill:#fefae0;fill-opacity:1"><path
           d="m 0,0 -2.637,4.529 -5.802,3.019 -7.248,0.431 -7.916,-1.833 -5.131,1.187 -2.933,1.616 2.065,-3.342 4.092,-0.97 -1.905,-1.403 5.131,-0.429 V 0.971 l 0.733,-2.373 2.53,-2.371 5.246,-0.54 4.539,1.079 2.052,1.617 -6.591,-1.186 -3.817,0.323 -2.052,2.48 -0.147,3.45 -3.373,1.402 5.866,1.294 1.185,0.12 -1.366,-1.434 V 2.474 l 2.379,-1.941 3.468,-0.972 3.193,1.386 1.398,0.923 -0.106,2.765 2.456,-2.803 2.205,-5.536 -8.374,-3.968 -8.036,-6.152 -5.74,-7.355 -2.338,-9.442 3.81,7.871 5.133,6.455 4.256,3.789 6.884,3.449 10.004,4.129 z"
           style="fill:#fefae0;fill-opacity:1;fill-rule:nonzero;stroke:none"
           id="path374" /></g><g
         id="g376"
         transform="translate(314.2109,303.9404)"
         style="fill:#fefae0;fill-opacity:1"><path
           d="m 0,0 2.637,4.529 5.801,3.019 7.248,0.431 7.917,-1.833 5.13,1.187 2.933,1.616 L 29.602,5.607 25.508,4.637 27.415,3.234 22.282,2.805 V 0.971 l -0.731,-2.373 -2.53,-2.371 -5.247,-0.54 -4.538,1.079 -2.053,1.617 6.591,-1.186 3.817,0.323 2.055,2.48 0.143,3.45 3.374,1.402 -5.864,1.294 -1.187,0.12 1.368,-1.434 V 2.474 L 15.098,0.533 11.632,-0.439 8.438,0.947 7.041,1.87 7.146,4.635 4.689,1.832 2.486,-3.704 l 8.373,-3.968 8.036,-6.152 5.742,-7.355 2.338,-9.442 -3.812,7.871 -5.133,6.455 -4.256,3.789 -6.885,3.449 -10.004,4.129 z"
           style="fill:#fefae0;fill-opacity:1;fill-rule:nonzero;stroke:none"
           id="path378" /></g></g></g></svg>
